<svg aria-hidden="true" style="position: absolute; width: 0; height: 0; overflow: hidden;" version="1.1" xmlns="http://www.w3.org/2000/svg" xmlns:xlink="http://www.w3.org/1999/xlink">
<defs>
<symbol id="icon-board" viewBox="0 0 30 32">
<path stroke-linejoin="round" stroke-linecap="round" stroke-miterlimit="4" stroke-width="1.1429" d="M14.663 4.094v-3.523"></path>
<path stroke-linejoin="round" stroke-linecap="round" stroke-miterlimit="4" stroke-width="1.1429" d="M28.754 20.534c-2.143 7.486-12.066 10.099-13.827 10.51-0.173 0.044-0.355 0.044-0.528 0-1.761-0.411-11.684-3.024-13.827-10.51v-5.020c-0-0.247 0.078-0.488 0.223-0.688s0.349-0.35 0.584-0.427l12.917-4.315c0.239-0.074 0.495-0.074 0.734 0l12.917 4.315c0.235 0.077 0.439 0.227 0.584 0.427s0.223 0.441 0.223 0.688v5.020z"></path>
<path stroke-linejoin="round" stroke-linecap="round" stroke-miterlimit="4" stroke-width="1.1429" d="M14.93 27.237c-1.394-0.321-9.244-2.361-10.94-8.205"></path>
<path style="fill: var(--color1, #ffffff)" stroke-linejoin="miter" stroke-linecap="butt" stroke-miterlimit="4" stroke-width="1.1429" stroke="#000" d="M3.99 5.704v7.516l10.598-3.761 10.598 3.761v-7.516c0-0.947-0.767-1.714-1.714-1.714h-17.767c-0.947 0-1.714 0.768-1.714 1.714z"></path>
<path stroke-linejoin="round" stroke-linecap="round" stroke-miterlimit="4" stroke-width="1.1429" d="M14.663 21.708v-11.684"></path>
<path stroke-linejoin="round" stroke-linecap="round" stroke-miterlimit="4" stroke-width="1.1429" d="M17.665 21.084v-4.786"></path>
<path stroke-linejoin="round" stroke-linecap="round" stroke-miterlimit="4" stroke-width="1.1429" d="M6.725 10.144v-3.419"></path>
<path stroke-linejoin="round" stroke-linecap="round" stroke-miterlimit="4" stroke-width="1.1429" d="M27.921 11.511v-6.154"></path>
</symbol>
<symbol id="icon-Pattern" viewBox="0 0 35 32">
<path fill="#ffb82b" style="fill: var(--color2, #ffb82b)" d="M0.419 0h32v32h-32v-32z"></path>
</symbol>
<symbol id="icon-Clock" viewBox="0 0 32 32">
<path fill="#111c55" style="fill: var(--color3, #111c55); stroke: var(--color4, #273270)" stroke="#273270" stroke-linejoin="miter" stroke-linecap="butt" stroke-miterlimit="4" stroke-width="0.5" d="M31.315 16c0 8.56-6.94 15.5-15.5 15.5s-15.5-6.94-15.5-15.5c0-8.56 6.94-15.5 15.5-15.5s15.5 6.94 15.5 15.5z"></path>
<path fill="none" stroke="#f6b426" style="stroke: var(--color5, #f6b426)" stroke-linejoin="miter" stroke-linecap="butt" stroke-miterlimit="4" stroke-width="0.5" d="M16.065 21.25c3.038 0 5.5-2.462 5.5-5.5s-2.462-5.5-5.5-5.5c-3.038 0-5.5 2.462-5.5 5.5s2.462 5.5 5.5 5.5z"></path>
<path fill="none" stroke="#f6b426" style="stroke: var(--color5, #f6b426)" stroke-linejoin="miter" stroke-linecap="butt" stroke-miterlimit="4" stroke-width="0.5" d="M16.065 11.25v4.603l2.5 1.897"></path>
</symbol>
<symbol id="icon-Facebook" viewBox="0 0 32 32">
<path fill="#fff" style="fill: var(--color6, #fff)" d="M31.137 16.084c0-7.725-6.687-13.988-14.934-13.988s-14.934 6.263-14.934 13.988c0 6.982 5.46 12.769 12.601 13.819v-9.774h-3.793v-4.045h3.793v-3.082c0-3.505 2.23-5.443 5.641-5.443 1.634 0 3.344 0.274 3.344 0.274v3.443h-1.884c-1.854 0-2.434 1.078-2.434 2.186v2.623h4.142l-0.661 4.045h-3.48v9.776c7.14-1.050 12.601-6.837 12.601-13.82z"></path>
</symbol>
<symbol id="icon-Instagram" viewBox="0 0 32 32">
<path fill="#fff" style="fill: var(--color6, #fff)" d="M22.521 3.252c1.755 0.005 3.437 0.678 4.679 1.873s1.941 2.813 1.946 4.502v12.748c-0.005 1.689-0.705 3.308-1.946 4.502s-2.923 1.868-4.679 1.873h-13.248c-1.755-0.005-3.437-0.678-4.678-1.873s-1.941-2.813-1.946-4.502v-12.748c0.005-1.689 0.705-3.308 1.946-4.502s2.923-1.868 4.678-1.873h13.248zM22.521 0.702h-13.248c-5.101 0-9.274 4.016-9.274 8.924v12.748c0 4.908 4.173 8.924 9.274 8.924h13.248c5.101 0 9.274-4.016 9.274-8.924v-12.748c0-4.908-4.173-8.924-9.274-8.924z"></path>
<path fill="#fff" style="fill: var(--color6, #fff)" d="M24.508 9.627c-0.393 0-0.777-0.112-1.104-0.322s-0.582-0.509-0.732-0.858-0.19-0.734-0.113-1.105c0.077-0.371 0.266-0.712 0.544-0.979s0.632-0.45 1.017-0.523 0.785-0.036 1.148 0.109c0.363 0.145 0.673 0.39 0.892 0.704s0.335 0.684 0.335 1.062c0 0.251-0.050 0.5-0.15 0.732s-0.246 0.443-0.431 0.621c-0.185 0.178-0.404 0.319-0.645 0.414s-0.5 0.145-0.761 0.144zM15.897 10.901c1.048 0 2.073 0.299 2.944 0.859s1.551 1.357 1.952 2.289c0.401 0.932 0.506 1.957 0.302 2.946s-0.709 1.898-1.45 2.611c-0.741 0.713-1.685 1.199-2.713 1.396s-2.094 0.096-3.062-0.29c-0.968-0.386-1.796-1.040-2.378-1.878s-0.893-1.825-0.893-2.833c0.002-1.352 0.56-2.648 1.554-3.604s2.341-1.494 3.746-1.495zM15.897 8.352c-1.572 0-3.109 0.449-4.416 1.289s-2.326 2.035-2.928 3.433c-0.602 1.398-0.759 2.936-0.452 4.419s1.064 2.847 2.175 3.916c1.112 1.070 2.528 1.798 4.070 2.093s3.14 0.144 4.593-0.435c1.452-0.579 2.694-1.559 3.567-2.817s1.34-2.737 1.34-4.249c0-2.029-0.837-3.974-2.328-5.409s-3.512-2.24-5.621-2.24z"></path>
</symbol>
<symbol id="icon-Linkdin" viewBox="0 0 32 32">
<path fill="#fff" style="fill: var(--color6, #fff)" d="M29.506 0.466h-25.93c-1.417 0-2.655 1.019-2.655 2.42v25.987c0 1.408 1.238 2.662 2.655 2.662h25.922c1.424 0 2.492-1.263 2.492-2.662v-25.987c0.008-1.4-1.068-2.42-2.485-2.42zM10.553 26.364h-4.451v-13.839h4.451v13.839zM8.481 10.42h-0.032c-1.424 0-2.347-1.060-2.347-2.388 0-1.352 0.947-2.387 2.403-2.387s2.348 1.028 2.379 2.387c-0.001 1.327-0.923 2.388-2.404 2.388zM26.82 26.364h-4.451v-7.567c0-1.813-0.648-3.051-2.258-3.051-1.23 0-1.959 0.832-2.282 1.643-0.121 0.291-0.154 0.688-0.154 1.093v7.883h-4.451v-13.839h4.451v1.926c0.648-0.922 1.66-2.25 4.014-2.25 2.922 0 5.132 1.926 5.132 6.078l-0.001 8.085z"></path>
</symbol>
<symbol id="icon-mail" viewBox="0 0 32 32">
<path fill="#111c55" style="fill: var(--color3, #111c55); stroke: var(--color4, #273270)" stroke="#273270" stroke-linejoin="miter" stroke-linecap="butt" stroke-miterlimit="4" stroke-width="0.5" d="M31.315 16c0 8.56-6.94 15.5-15.5 15.5s-15.5-6.94-15.5-15.5c0-8.56 6.94-15.5 15.5-15.5s15.5 6.94 15.5 15.5z"></path>
<path fill="none" stroke="#f6b426" style="stroke: var(--color5, #f6b426)" stroke-linejoin="miter" stroke-linecap="butt" stroke-miterlimit="4" stroke-width="0.5" d="M20.563 11.75h-8.996c-0.277 0-0.502 0.188-0.502 0.419v6.661c0 0.232 0.225 0.419 0.502 0.419h8.996c0.277 0 0.502-0.188 0.502-0.419v-6.661c0-0.232-0.225-0.419-0.502-0.419z"></path>
<path fill="none" stroke="#f6b426" style="stroke: var(--color5, #f6b426)" stroke-linejoin="miter" stroke-linecap="butt" stroke-miterlimit="4" stroke-width="0.5" d="M11.065 11.75l5.212 3.5 4.788-3.385"></path>
</symbol>
<symbol id="icon-phone" viewBox="0 0 32 32">
<path fill="#111c55" style="fill: var(--color3, #111c55); stroke: var(--color4, #273270)" stroke="#273270" stroke-linejoin="miter" stroke-linecap="butt" stroke-miterlimit="4" stroke-width="0.5" d="M31.315 16c0 8.56-6.94 15.5-15.5 15.5s-15.5-6.94-15.5-15.5c0-8.56 6.94-15.5 15.5-15.5s15.5 6.94 15.5 15.5z"></path>
<path fill="none" stroke="#f6b426" style="stroke: var(--color5, #f6b426)" stroke-linejoin="miter" stroke-linecap="butt" stroke-miterlimit="4" stroke-width="0.5" d="M12.052 11.32c-0.067 0.002-0.133 0.017-0.195 0.043s-0.116 0.064-0.161 0.111c-0.045 0.047-0.080 0.101-0.103 0.161s-0.032 0.123-0.028 0.186c0.067 1.080 0.384 3.715 1.902 5.358 1.818 1.98 4.184 2.662 6.613 2.561 0.13-0.007 0.253-0.061 0.342-0.149s0.14-0.206 0.142-0.328v-1.73c-0.002-0.161-0.061-0.318-0.169-0.444s-0.257-0.214-0.425-0.251l-1.216-0.252c-0.15-0.030-0.307-0.017-0.45 0.037s-0.264 0.147-0.35 0.267l-0.269 0.382c-0.025 0.035-0.062 0.061-0.104 0.073s-0.089 0.010-0.13-0.006c-0.619-0.25-3.084-1.33-3.354-3.152-0.005-0.035 0.001-0.071 0.017-0.103s0.043-0.059 0.075-0.077l0.488-0.279c0.134-0.078 0.239-0.192 0.301-0.328s0.078-0.286 0.047-0.43l-0.267-1.159c-0.039-0.162-0.137-0.307-0.277-0.41s-0.314-0.156-0.491-0.152l-1.939 0.070z"></path>
</symbol>
<symbol id="icon-Twitter" viewBox="0 0 32 32">
<path fill="#fff" style="fill: var(--color6, #fff)" d="M31.321 6.646c-1.15 0.5-2.368 0.829-3.613 0.977 1.309-0.766 2.294-1.983 2.769-3.422-1.238 0.723-2.589 1.231-3.997 1.501-0.593-0.621-1.306-1.115-2.096-1.452s-1.64-0.51-2.499-0.508c-3.477 0-6.291 2.771-6.291 6.187-0.002 0.475 0.052 0.949 0.162 1.411-2.493-0.117-4.935-0.752-7.169-1.866s-4.21-2.681-5.803-4.602c-0.559 0.941-0.854 2.015-0.856 3.11 0 2.145 1.12 4.042 2.812 5.153-1.002-0.024-1.984-0.289-2.861-0.773v0.077c0 3.001 2.173 5.498 5.048 6.066-0.541 0.144-1.098 0.217-1.658 0.217-0.397 0.001-0.793-0.038-1.183-0.115 0.799 2.458 3.126 4.246 5.882 4.297-2.239 1.725-4.989 2.657-7.816 2.65-0.502-0.001-1.003-0.031-1.502-0.089 2.876 1.835 6.219 2.806 9.632 2.797 11.589 0 17.919-9.431 17.919-17.61 0-0.268-0.007-0.536-0.020-0.798 1.229-0.873 2.292-1.959 3.139-3.205z"></path>
</symbol>
<symbol id="icon-time" viewBox="0 0 32 32">
<path d="M20.586 23.414l-6.586-6.586v-8.828h4v7.172l5.414 5.414zM16 0c-8.837 0-16 7.163-16 16s7.163 16 16 16 16-7.163 16-16-7.163-16-16-16zM16 28c-6.627 0-12-5.373-12-12s5.373-12 12-12c6.627 0 12 5.373 12 12s-5.373 12-12 12z"></path>
</symbol>
<symbol id="icon-database" viewBox="0 0 32 32">
<path d="M16 0c-8.837 0-16 2.239-16 5v4c0 2.761 7.163 5 16 5s16-2.239 16-5v-4c0-2.761-7.163-5-16-5z"></path>
<path d="M16 17c-8.837 0-16-2.239-16-5v6c0 2.761 7.163 5 16 5s16-2.239 16-5v-6c0 2.761-7.163 5-16 5z"></path>
<path d="M16 26c-8.837 0-16-2.239-16-5v6c0 2.761 7.163 5 16 5s16-2.239 16-5v-6c0 2.761-7.163 5-16 5z"></path>
</symbol>
<symbol id="icon-truck" viewBox="0 0 32 32">
<path d="M32 18l-4-8h-6v-4c0-1.1-0.9-2-2-2h-18c-1.1 0-2 0.9-2 2v16l2 2h2.536c-0.341 0.588-0.536 1.271-0.536 2 0 2.209 1.791 4 4 4s4-1.791 4-4c0-0.729-0.196-1.412-0.536-2h11.073c-0.341 0.588-0.537 1.271-0.537 2 0 2.209 1.791 4 4 4s4-1.791 4-4c0-0.729-0.196-1.412-0.537-2h2.537v-6zM22 18v-6h4.146l3 6h-7.146z"></path>
</symbol>
<symbol id="icon-road" viewBox="0 0 32 32">
<path d="M22 32h10l-8-32h-6l1 8h-6l1-8h-6l-8 32h10l1-8h10l1 8zM11.5 20l1-8h7l1 8h-9z"></path>
</symbol>
<symbol id="icon-renren" viewBox="0 0 32 32">
<path d="M13.287 0.331c-7.537 1.269-13.287 7.825-13.287 15.725 0 3.925 1.425 7.519 3.775 10.3 5.581-2.7 9.488-8.813 9.512-15.931v-10.094z"></path>
<path d="M18.712 0.331c7.538 1.269 13.288 7.825 13.288 15.725 0 3.925-1.425 7.519-3.775 10.3-5.581-2.7-9.488-8.813-9.512-15.931v-10.094z"></path>
<path d="M15.944 20.081c-0.994 4.113-3.963 7.625-7.656 9.963 2.275 1.244 4.881 1.956 7.656 1.956s5.381-0.712 7.656-1.956c-3.694-2.337-6.663-5.85-7.656-9.963z"></path>
</symbol>
<symbol id="icon-dribbble" viewBox="0 0 32 32">
<path d="M16 32c-8.825 0-16-7.175-16-16s7.175-16 16-16c8.825 0 16 7.175 16 16s-7.175 16-16 16v0zM29.494 18.188c-0.469-0.15-4.231-1.269-8.512-0.581 1.788 4.912 2.512 8.912 2.656 9.744 3.063-2.075 5.25-5.356 5.856-9.163v0zM21.337 28.6c-0.206-1.2-0.994-5.375-2.913-10.363-0.031 0.012-0.063 0.019-0.087 0.031-7.713 2.688-10.481 8.031-10.725 8.531 2.319 1.806 5.231 2.887 8.387 2.887 1.894 0 3.7-0.387 5.338-1.087v0zM5.844 25.156c0.313-0.531 4.063-6.738 11.106-9.019 0.175-0.056 0.356-0.113 0.538-0.162-0.344-0.775-0.719-1.556-1.106-2.319-6.819 2.044-13.444 1.956-14.044 1.95-0.006 0.137-0.006 0.275-0.006 0.419 0 3.506 1.331 6.712 3.512 9.131v0zM2.625 13.219c0.612 0.006 6.244 0.031 12.637-1.662-2.262-4.025-4.706-7.412-5.069-7.906-3.825 1.806-6.688 5.331-7.569 9.569v0zM12.8 2.731c0.375 0.506 2.863 3.888 5.1 8 4.863-1.819 6.919-4.588 7.163-4.938-2.413-2.144-5.587-3.444-9.063-3.444-1.1 0.006-2.175 0.138-3.2 0.381v0zM26.581 7.381c-0.288 0.388-2.581 3.325-7.631 5.388 0.319 0.65 0.625 1.313 0.906 1.981 0.1 0.238 0.2 0.469 0.294 0.706 4.55-0.569 9.069 0.344 9.519 0.438-0.031-3.225-1.188-6.188-3.087-8.512v0z"></path>
</symbol>
<symbol id="icon-stackoverflow" viewBox="0 0 32 32">
<path d="M32 20v12h-32v-12h4v8h24v-8zM6 22h20v4h-20zM6.473 17.671l0.866-3.905 19.526 4.328-0.866 3.905zM8.739 9.642l1.69-3.625 18.126 8.452-1.69 3.625zM30.991 11.296l-2.435 3.173-15.867-12.175 1.761-2.294h1.82z"></path>
</symbol>
<symbol id="icon-codepen" viewBox="0 0 32 32">
<path d="M29.555 11.501l-14-9.333c-0.336-0.224-0.774-0.224-1.109 0l-14 9.333c-0.278 0.185-0.445 0.498-0.445 0.832v9.333c0 0.334 0.167 0.647 0.445 0.832l14 9.333c0.168 0.112 0.361 0.168 0.555 0.168s0.387-0.056 0.555-0.168l14-9.333c0.278-0.185 0.445-0.498 0.445-0.832v-9.333c0-0.334-0.167-0.647-0.445-0.832zM15 20.465l-5.197-3.465 5.197-3.465 5.197 3.465-5.197 3.465zM16 11.798v-6.93l11.197 7.465-5.197 3.465-6-4zM14 11.798l-6 4-5.197-3.465 11.197-7.465v6.93zM6.197 17l-4.197 2.798v-5.596l4.197 2.798zM8 18.202l6 4v6.93l-11.197-7.465 5.197-3.465zM16 22.202l6-4 5.197 3.465-11.197 7.465v-6.93zM23.803 17l4.197-2.798v5.596l-4.197-2.798z"></path>
</symbol>
<symbol id="icon-close" viewBox="0 0 32 32">
<path d="M23.884 6.706l-7.884 7.884-7.884-7.884c-0.19-0.174-0.439-0.267-0.696-0.261s-0.502 0.11-0.684 0.292c-0.182 0.182-0.286 0.427-0.292 0.684s0.088 0.506 0.261 0.696l7.88 7.884-7.882 7.882c-0.096 0.092-0.173 0.202-0.226 0.324s-0.081 0.253-0.083 0.386 0.023 0.265 0.073 0.388c0.050 0.123 0.124 0.235 0.218 0.329s0.206 0.169 0.329 0.219 0.255 0.075 0.388 0.074c0.133-0.002 0.264-0.029 0.386-0.082s0.232-0.13 0.324-0.226l7.886-7.882 7.884 7.884c0.19 0.174 0.439 0.267 0.696 0.262s0.502-0.11 0.684-0.292c0.182-0.182 0.286-0.427 0.292-0.684s-0.088-0.506-0.262-0.696l-7.884-7.884 7.884-7.886c0.096-0.092 0.173-0.202 0.226-0.324s0.081-0.253 0.083-0.386c0.002-0.133-0.023-0.265-0.073-0.388s-0.124-0.235-0.218-0.329c-0.094-0.094-0.206-0.169-0.329-0.219s-0.255-0.075-0.388-0.074-0.264 0.029-0.386 0.082c-0.122 0.053-0.232 0.13-0.324 0.226v0.002z"></path>
</symbol>
<symbol id="icon-cross" viewBox="0 0 32 32">
<path d="M31.708 25.708c-0-0-0-0-0-0l-9.708-9.708 9.708-9.708c0-0 0-0 0-0 0.105-0.105 0.18-0.227 0.229-0.357 0.133-0.356 0.057-0.771-0.229-1.057l-4.586-4.586c-0.286-0.286-0.702-0.361-1.057-0.229-0.13 0.048-0.252 0.124-0.357 0.228 0 0-0 0-0 0l-9.708 9.708-9.708-9.708c-0-0-0-0-0-0-0.105-0.104-0.227-0.18-0.357-0.228-0.356-0.133-0.771-0.057-1.057 0.229l-4.586 4.586c-0.286 0.286-0.361 0.702-0.229 1.057 0.049 0.13 0.124 0.252 0.229 0.357 0 0 0 0 0 0l9.708 9.708-9.708 9.708c-0 0-0 0-0 0-0.104 0.105-0.18 0.227-0.229 0.357-0.133 0.355-0.057 0.771 0.229 1.057l4.586 4.586c0.286 0.286 0.702 0.361 1.057 0.229 0.13-0.049 0.252-0.124 0.357-0.229 0-0 0-0 0-0l9.708-9.708 9.708 9.708c0 0 0 0 0 0 0.105 0.105 0.227 0.18 0.357 0.229 0.356 0.133 0.771 0.057 1.057-0.229l4.586-4.586c0.286-0.286 0.362-0.702 0.229-1.057-0.049-0.13-0.124-0.252-0.229-0.357z"></path>
</symbol>
</defs>
</svg>
